<svg id="Capa_1" xmlns="http://www.w3.org/2000/svg" x="0" y="0" width="100%" height="100%" viewBox="0 0 100 100" style="enable-background:new 0 0 100 100" xml:space="preserve" class="w-12 h-12 m-auto"><style>.st1000{fill:#4a454d}</style><path class="st1000" d="M50 81.5c-.7 0-4.9-.8-13.6-15.6-2.2-3.7-9.3-16.4-9.3-24.5 0-12.6 10.3-22.9 22.9-22.9 12.6 0 22.9 10.3 22.9 22.9 0 8.1-7.1 20.8-9.3 24.5C54.9 80.7 50.7 81.5 50 81.5zm.1-3zm-.1-57c-11 0-19.9 8.9-19.9 19.9C30.1 53 46.8 77.6 50 78.5c3.2-.8 19.9-25.4 19.9-37.1 0-11-8.9-19.9-19.9-19.9z"></path><path class="st1000" d="M50 51.5c-5.6 0-10.1-4.5-10.1-10.1S44.4 31.3 50 31.3s10.1 4.5 10.1 10.1S55.5 51.5 50 51.5zm0-17.2c-3.9 0-7.1 3.2-7.1 7.1s3.2 7.1 7.1 7.1 7.1-3.2 7.1-7.1-3.2-7.1-7.1-7.1z"></path></svg>